<!-- Salve como public/icons/google.svg -->
<svg xmlns="http://www.w3.org/2000/svg" width="20" height="20" viewBox="0 0 48 48">
  <path fill="#FFC107" d="M43.6 20.5H42V20H24v8h11.3C34.2 33.6 29.7 36 24 36c-6.6 0-12-5.4-12-12s5.4-12 12-12c3 0 5.7 1.1 7.8 3l5.9-5.9C34.2 6.7 29.4 4 24 4 12.9 4 4 12.9 4 24s8.9 20 20 20c11 0 20-9 20-20 0-1.3-.1-2.7-.4-3.5z"/>
  <path fill="#FF3D00" d="M6.3 14.7l6.6 4.8C14.2 16 18.7 13 24 13c3 0 5.7 1.1 7.8 3l5.9-5.9C34.2 6.7 29.4 4 24 4 16.3 4 9.6 8.5 6.3 14.7z"/>
  <path fill="#4CAF50" d="M24 44c5.3 0 10.2-1.8 14-4.8l-6.5-5.3C29.7 36 24 36 19.3 33.3l-6.6 4.9C9.6 39.5 16.3 44 24 44z"/>
  <path fill="#1976D2" d="M43.6 20.5H42V20H24v8h11.3C34.9 33.1 30.2 36 24 36c-4.7 0-9.2-2.4-11.8-6.3l-6.6 4.8C9.6 39.5 16.3 44 24 44c11 0 20-9 20-20 0-1.3-.1-2.7-.4-3.5z"/>
</svg>
